<mxfile host="app.diagrams.net" modified="2021-09-26T17:57:51.109Z" agent="5.0 (Windows NT 10.0; Win64; x64) AppleWebKit/537.36 (KHTML, like Gecko) Chrome/93.0.4577.82 Safari/537.36 Edg/93.0.961.52" etag="nng_mpHKFHCZ67FONFlb" version="15.3.0" type="github">
  <diagram id="L_eCcWARfc-s5K9qRDMl" name="Page-1">
    <mxGraphModel dx="1038" dy="588" grid="1" gridSize="10" guides="1" tooltips="1" connect="1" arrows="1" fold="1" page="1" pageScale="1" pageWidth="827" pageHeight="1169" math="0" shadow="0">
      <root>
        <mxCell id="0" />
        <mxCell id="1" parent="0" />
        <mxCell id="_cBvLI8PUuSnjw4zckk6-4" value="Начало" style="strokeWidth=2;html=1;shape=mxgraph.flowchart.terminator;whiteSpace=wrap;" vertex="1" parent="1">
          <mxGeometry x="280" y="40" width="240" height="80" as="geometry" />
        </mxCell>
        <mxCell id="_cBvLI8PUuSnjw4zckk6-5" value="Конец" style="strokeWidth=2;html=1;shape=mxgraph.flowchart.terminator;whiteSpace=wrap;" vertex="1" parent="1">
          <mxGeometry x="320" y="1110" width="160" height="80" as="geometry" />
        </mxCell>
        <mxCell id="_cBvLI8PUuSnjw4zckk6-6" value="Ввод text, shift" style="shape=manualInput;whiteSpace=wrap;html=1;" vertex="1" parent="1">
          <mxGeometry x="280" y="160" width="240" height="80" as="geometry" />
        </mxCell>
        <mxCell id="_cBvLI8PUuSnjw4zckk6-7" value="" style="endArrow=none;html=1;entryX=0.5;entryY=1;entryDx=0;entryDy=0;entryPerimeter=0;" edge="1" parent="1" target="_cBvLI8PUuSnjw4zckk6-4">
          <mxGeometry width="50" height="50" relative="1" as="geometry">
            <mxPoint x="400" y="176" as="sourcePoint" />
            <mxPoint x="410" y="310" as="targetPoint" />
          </mxGeometry>
        </mxCell>
        <mxCell id="_cBvLI8PUuSnjw4zckk6-8" value="" style="shape=loopLimit;whiteSpace=wrap;html=1;" vertex="1" parent="1">
          <mxGeometry x="280" y="400" width="240" height="80" as="geometry" />
        </mxCell>
        <mxCell id="_cBvLI8PUuSnjw4zckk6-10" value="Пока i есть в text" style="shape=loopLimit;whiteSpace=wrap;html=1;flipH=0;flipV=1;" vertex="1" parent="1">
          <mxGeometry x="320" y="880" width="160" height="80" as="geometry" />
        </mxCell>
        <mxCell id="_cBvLI8PUuSnjw4zckk6-11" value="" style="endArrow=none;html=1;entryX=0.5;entryY=1;entryDx=0;entryDy=0;exitX=0.5;exitY=0;exitDx=0;exitDy=0;" edge="1" parent="1" source="_cBvLI8PUuSnjw4zckk6-16" target="_cBvLI8PUuSnjw4zckk6-6">
          <mxGeometry width="50" height="50" relative="1" as="geometry">
            <mxPoint x="420" y="320" as="sourcePoint" />
            <mxPoint x="410" y="240" as="targetPoint" />
          </mxGeometry>
        </mxCell>
        <mxCell id="_cBvLI8PUuSnjw4zckk6-12" value="" style="endArrow=none;html=1;" edge="1" parent="1">
          <mxGeometry width="50" height="50" relative="1" as="geometry">
            <mxPoint x="400" y="400" as="sourcePoint" />
            <mxPoint x="400" y="360" as="targetPoint" />
          </mxGeometry>
        </mxCell>
        <mxCell id="_cBvLI8PUuSnjw4zckk6-16" value="&lt;div&gt;alphabet_upper = list(&#39;abcdefghijklmnopqrstuvwxyz&#39;)&lt;/div&gt;&lt;div&gt;&amp;nbsp; &amp;nbsp; alphabet_lower = list(&#39;ABCDEFGHIJKLMNOPQRSTUVWXYZ&#39;)&lt;/div&gt;" style="rounded=0;whiteSpace=wrap;html=1;" vertex="1" parent="1">
          <mxGeometry x="280" y="280" width="240" height="80" as="geometry" />
        </mxCell>
        <mxCell id="_cBvLI8PUuSnjw4zckk6-17" value="i есть в alphabet_lower?" style="rhombus;whiteSpace=wrap;html=1;" vertex="1" parent="1">
          <mxGeometry x="280" y="520" width="240" height="80" as="geometry" />
        </mxCell>
        <mxCell id="_cBvLI8PUuSnjw4zckk6-18" value="i есть в alphabet_upper?" style="rhombus;whiteSpace=wrap;html=1;" vertex="1" parent="1">
          <mxGeometry x="280" y="640" width="240" height="80" as="geometry" />
        </mxCell>
        <mxCell id="_cBvLI8PUuSnjw4zckk6-19" value="" style="endArrow=none;html=1;" edge="1" parent="1">
          <mxGeometry width="50" height="50" relative="1" as="geometry">
            <mxPoint x="400" y="520" as="sourcePoint" />
            <mxPoint x="400" y="480" as="targetPoint" />
          </mxGeometry>
        </mxCell>
        <mxCell id="_cBvLI8PUuSnjw4zckk6-20" value="" style="endArrow=none;html=1;exitX=0.5;exitY=1;exitDx=0;exitDy=0;entryX=0.5;entryY=0;entryDx=0;entryDy=0;" edge="1" parent="1" source="_cBvLI8PUuSnjw4zckk6-17" target="_cBvLI8PUuSnjw4zckk6-18">
          <mxGeometry width="50" height="50" relative="1" as="geometry">
            <mxPoint x="390" y="580" as="sourcePoint" />
            <mxPoint x="440" y="530" as="targetPoint" />
          </mxGeometry>
        </mxCell>
        <mxCell id="_cBvLI8PUuSnjw4zckk6-21" value="" style="endArrow=none;html=1;entryX=1;entryY=0.5;entryDx=0;entryDy=0;exitX=0;exitY=0.5;exitDx=0;exitDy=0;" edge="1" parent="1" source="_cBvLI8PUuSnjw4zckk6-22" target="_cBvLI8PUuSnjw4zckk6-17">
          <mxGeometry width="50" height="50" relative="1" as="geometry">
            <mxPoint x="520" y="560" as="sourcePoint" />
            <mxPoint x="440" y="530" as="targetPoint" />
          </mxGeometry>
        </mxCell>
        <mxCell id="_cBvLI8PUuSnjw4zckk6-22" value="arr = alphabet_lower&lt;br&gt;ind = alphabet_lower.index(i) + shift&lt;br&gt;a = ind % len(arr)&lt;br&gt;&amp;nbsp;res += arr[a]" style="rounded=0;whiteSpace=wrap;html=1;" vertex="1" parent="1">
          <mxGeometry x="560" y="520" width="240" height="80" as="geometry" />
        </mxCell>
        <mxCell id="_cBvLI8PUuSnjw4zckk6-23" value="&lt;span&gt;arr = alphabet_upper&lt;/span&gt;&lt;br&gt;&lt;span&gt;ind = alphabet_upper.index(i) + shift&lt;/span&gt;&lt;br&gt;&lt;span&gt;a = ind % len(arr)&lt;/span&gt;&lt;br&gt;&lt;span&gt;&amp;nbsp;res += arr[a]&lt;/span&gt;" style="rounded=0;whiteSpace=wrap;html=1;" vertex="1" parent="1">
          <mxGeometry y="640" width="240" height="80" as="geometry" />
        </mxCell>
        <mxCell id="_cBvLI8PUuSnjw4zckk6-24" value="" style="endArrow=none;html=1;entryX=0.5;entryY=1;entryDx=0;entryDy=0;" edge="1" parent="1" target="_cBvLI8PUuSnjw4zckk6-22">
          <mxGeometry width="50" height="50" relative="1" as="geometry">
            <mxPoint x="680" y="860" as="sourcePoint" />
            <mxPoint x="460" y="780" as="targetPoint" />
          </mxGeometry>
        </mxCell>
        <mxCell id="_cBvLI8PUuSnjw4zckk6-25" value="" style="endArrow=none;html=1;entryX=0;entryY=0.5;entryDx=0;entryDy=0;exitX=1;exitY=0.5;exitDx=0;exitDy=0;" edge="1" parent="1" source="_cBvLI8PUuSnjw4zckk6-23" target="_cBvLI8PUuSnjw4zckk6-18">
          <mxGeometry width="50" height="50" relative="1" as="geometry">
            <mxPoint x="410" y="830" as="sourcePoint" />
            <mxPoint x="460" y="780" as="targetPoint" />
          </mxGeometry>
        </mxCell>
        <mxCell id="_cBvLI8PUuSnjw4zckk6-26" value="" style="endArrow=none;html=1;entryX=0.5;entryY=1;entryDx=0;entryDy=0;" edge="1" parent="1" target="_cBvLI8PUuSnjw4zckk6-18">
          <mxGeometry width="50" height="50" relative="1" as="geometry">
            <mxPoint x="400" y="760" as="sourcePoint" />
            <mxPoint x="460" y="760" as="targetPoint" />
          </mxGeometry>
        </mxCell>
        <mxCell id="_cBvLI8PUuSnjw4zckk6-27" value="&lt;span&gt;&amp;nbsp;res += i&lt;/span&gt;" style="rounded=0;whiteSpace=wrap;html=1;" vertex="1" parent="1">
          <mxGeometry x="280" y="760" width="240" height="80" as="geometry" />
        </mxCell>
        <mxCell id="_cBvLI8PUuSnjw4zckk6-28" value="" style="endArrow=none;html=1;exitX=0.5;exitY=1;exitDx=0;exitDy=0;entryX=0.5;entryY=0;entryDx=0;entryDy=0;" edge="1" parent="1" source="_cBvLI8PUuSnjw4zckk6-27" target="_cBvLI8PUuSnjw4zckk6-10">
          <mxGeometry width="50" height="50" relative="1" as="geometry">
            <mxPoint x="410" y="860" as="sourcePoint" />
            <mxPoint x="460" y="810" as="targetPoint" />
          </mxGeometry>
        </mxCell>
        <mxCell id="_cBvLI8PUuSnjw4zckk6-31" value="" style="endArrow=none;html=1;entryX=0.5;entryY=1;entryDx=0;entryDy=0;" edge="1" parent="1" target="_cBvLI8PUuSnjw4zckk6-23">
          <mxGeometry width="50" height="50" relative="1" as="geometry">
            <mxPoint x="120" y="870" as="sourcePoint" />
            <mxPoint x="460" y="710" as="targetPoint" />
          </mxGeometry>
        </mxCell>
        <mxCell id="_cBvLI8PUuSnjw4zckk6-32" value="" style="endArrow=classic;html=1;" edge="1" parent="1">
          <mxGeometry width="50" height="50" relative="1" as="geometry">
            <mxPoint x="120" y="870" as="sourcePoint" />
            <mxPoint x="400" y="870" as="targetPoint" />
          </mxGeometry>
        </mxCell>
        <mxCell id="_cBvLI8PUuSnjw4zckk6-33" value="" style="endArrow=classic;html=1;" edge="1" parent="1">
          <mxGeometry width="50" height="50" relative="1" as="geometry">
            <mxPoint x="680" y="860" as="sourcePoint" />
            <mxPoint x="400" y="860" as="targetPoint" />
          </mxGeometry>
        </mxCell>
        <mxCell id="_cBvLI8PUuSnjw4zckk6-34" value="Да" style="text;html=1;strokeColor=none;fillColor=none;align=center;verticalAlign=middle;whiteSpace=wrap;rounded=0;" vertex="1" parent="1">
          <mxGeometry x="520" y="540" width="40" height="20" as="geometry" />
        </mxCell>
        <mxCell id="_cBvLI8PUuSnjw4zckk6-35" value="Да" style="text;html=1;strokeColor=none;fillColor=none;align=center;verticalAlign=middle;whiteSpace=wrap;rounded=0;" vertex="1" parent="1">
          <mxGeometry x="240" y="660" width="40" height="20" as="geometry" />
        </mxCell>
        <mxCell id="_cBvLI8PUuSnjw4zckk6-36" value="Нет" style="text;html=1;strokeColor=none;fillColor=none;align=center;verticalAlign=middle;whiteSpace=wrap;rounded=0;" vertex="1" parent="1">
          <mxGeometry x="400" y="610" width="40" height="20" as="geometry" />
        </mxCell>
        <mxCell id="_cBvLI8PUuSnjw4zckk6-37" value="Нет" style="text;html=1;strokeColor=none;fillColor=none;align=center;verticalAlign=middle;whiteSpace=wrap;rounded=0;" vertex="1" parent="1">
          <mxGeometry x="400" y="730" width="40" height="20" as="geometry" />
        </mxCell>
      </root>
    </mxGraphModel>
  </diagram>
</mxfile>
